<?xml version="1.0" encoding="UTF-8" standalone="no"?><!DOCTYPE svg PUBLIC "-//W3C//DTD SVG 1.1//EN" "http://www.w3.org/Graphics/SVG/1.1/DTD/svg11.dtd"><svg width="100%" height="100%" viewBox="0 0 1182 204" version="1.1" xmlns="http://www.w3.org/2000/svg" xmlns:xlink="http://www.w3.org/1999/xlink" xml:space="preserve" xmlns:serif="http://www.serif.com/" style="fill-rule:evenodd;clip-rule:evenodd;stroke-linejoin:round;stroke-miterlimit:1.41421;"><g id="Layer-1" serif:id="Layer 1"><rect x="54.354" y="12.993" width="374.175" height="176.962" style="fill:#28408c;"/><rect x="16.108" y="12.993" width="19.046" height="176.962" style="fill:#28408c;"/><path d="M185.789,152.053c0.096,1.345 -0.6,2.02 -2.104,2.02c-0.954,0 -3.696,-0.546 -8.221,-1.645c-4.533,-1.105 -7.321,-1.855 -8.379,-2.25c-10.463,4.099 -20.5,6.154 -30.108,6.154c-15.475,0 -28.163,-5.159 -38.08,-15.471c-9.812,-10.163 -14.716,-23.004 -14.716,-38.529c0,-15.871 4.754,-29.034 14.266,-39.5c9.813,-10.813 22.555,-16.217 38.225,-16.217c7.613,0 14.771,1.45 21.48,4.354c7.258,3.2 12.966,7.709 17.125,13.517c0.85,1.2 1.275,2.054 1.275,2.554c0,1.6 -2.242,5.188 -6.725,10.775c-4.48,5.583 -7.371,8.375 -8.671,8.375c-0.3,0 -1.454,-1.029 -3.454,-3.083c-2.455,-2.446 -4.959,-4.354 -7.509,-5.704c-3.804,-2.055 -8.012,-3.08 -12.621,-3.08c-7.508,0 -13.466,2.805 -17.87,8.409c-4.109,5.158 -6.155,11.595 -6.155,19.304c0,8.162 2.125,14.616 6.38,19.375c4.404,4.908 10.637,7.358 18.7,7.358c5.104,0 10.812,-1.279 17.125,-3.833c-0.155,-1.65 -0.605,-5.854 -1.355,-12.613c-0.65,-5.204 -0.979,-9.408 -0.979,-12.616c0,-0.95 0.329,-1.525 0.979,-1.725c0.246,-0.1 0.65,-0.15 1.2,-0.15c1.455,0 3.642,0.141 6.571,0.408c2.929,0.279 5.142,0.417 6.65,0.417c1.6,0 4.004,-0.113 7.209,-0.338c3.204,-0.229 5.604,-0.337 7.208,-0.337c1.25,0 1.879,0.825 1.879,2.475c0,2.4 -0.142,6.029 -0.417,10.887c-0.275,4.863 -0.408,8.492 -0.408,10.896c0,6.458 0.471,16.121 1.421,28.987l0.079,0.826Z" style="fill:#fff;fill-rule:nonzero;"/><path d="M274.87,131.097c0,2.158 -0.425,6.113 -1.275,11.867c-0.904,6.262 -1.704,9.987 -2.404,11.191c-0.6,0.955 -1.429,1.425 -2.479,1.425c-0.45,0 -1.205,-0.079 -2.255,-0.225c-3.654,-0.504 -14.316,-0.75 -31.987,-0.75c-3.858,0 -9.592,-0.025 -17.2,-0.075c-7.608,-0.054 -13.321,-0.079 -17.125,-0.079c-1.654,0 -2.475,-0.721 -2.475,-2.175c0,-5.604 0.308,-14.033 0.942,-25.266c0.62,-11.246 0.933,-19.667 0.933,-25.275c0,-5.709 -0.296,-16.346 -0.9,-31.921c-0.154,-4.004 -0.425,-9.988 -0.825,-17.942l-0.075,-1.054c-0.1,-1.15 0.525,-1.729 1.875,-1.729c3.708,0 9.275,0.104 16.708,0.3c7.434,0.2 13.004,0.304 16.713,0.304c3.654,0 9.162,-0.104 16.521,-0.304c7.358,-0.196 12.866,-0.3 16.525,-0.3c2.6,0 4.1,0.979 4.504,2.929c0.25,1.154 0.637,4.646 1.162,10.479c0.525,5.833 0.792,9.371 0.792,10.621c0,1.058 -0.504,1.579 -1.504,1.579c-0.3,0 -0.825,-0.025 -1.575,-0.075c-13.321,-1.096 -25.288,-1.65 -35.9,-1.65c-2.654,0 -4.279,0.629 -4.884,1.879c-0.25,0.6 -0.375,2.529 -0.375,5.775c0,3.409 0.5,5.667 1.505,6.759c0.85,0.962 2.479,1.429 4.879,1.429c0.504,0 1.475,-0.038 2.929,-0.109c1.45,-0.075 2.654,-0.116 3.604,-0.116c6.308,0 12.692,-0.171 19.15,-0.525c0.554,-0.046 1.929,-0.175 4.133,-0.375c1.7,-0.2 3.055,-0.304 4.055,-0.304c1.2,0 1.804,0.583 1.804,1.733c0,-1.054 -0.45,2.775 -1.354,11.492c-0.4,4.008 -0.6,8.008 -0.6,12.012c0,1.004 -0.73,1.504 -2.18,1.504l-6.758,-0.75c-2.854,-0.304 -9.362,-0.45 -19.525,-0.45l-7.962,0c-2.05,0 -3.25,0.5 -3.605,1.504c-0.05,0.25 -0.075,1.8 -0.075,4.65c0,3.805 0.25,6.263 0.755,7.367c0.85,1.896 4.054,3.021 9.608,3.371l10.967,0c2.654,0 6.595,-0.229 11.829,-0.717c5.229,-0.466 9.15,-0.704 11.754,-0.704c1.1,0 1.65,0.896 1.65,2.7" style="fill:#fff;fill-rule:nonzero;"/><path d="M398.497,152.122c0,1.558 -0.73,2.333 -2.175,2.333l-26.588,0c-1.45,0 -2.179,-0.871 -2.179,-2.629c0,-5.059 0.187,-12.638 0.567,-22.754c0.37,-10.109 0.558,-17.696 0.558,-22.755c0,-1.454 -0.221,-2.229 -0.675,-2.333c-0.55,0.304 -3.904,8.042 -10.063,23.213c-3.604,8.908 -7.208,17.791 -10.812,26.658c-0.5,1.146 -1.129,1.825 -1.879,2.025c-0.25,0.05 -1.254,0.071 -3.004,0.071c-2.605,0 -4.154,-0.492 -4.654,-1.496c-2.705,-5.508 -6.259,-13.521 -10.663,-24.033c-4.708,-11.117 -8.242,-19.155 -10.587,-24.105c-0.105,-0.254 -0.33,-0.529 -0.68,-0.825c-0.35,0.45 -0.525,1.175 -0.525,2.175c0,4.913 0.125,12.267 0.375,22.084c0.25,9.808 0.375,17.171 0.375,22.075c0,1.758 -0.7,2.629 -2.104,2.629l-25.083,0c-1,0 -1.613,-0.162 -1.838,-0.487c-0.225,-0.326 -0.337,-0.892 -0.337,-1.692c0,-5.45 0.258,-13.658 0.787,-24.596c0.525,-10.933 0.788,-19.133 0.788,-24.592c0,-5.808 -0.25,-16.7 -0.746,-32.67c-0.054,-4.15 -0.279,-10.338 -0.679,-18.546l-0.075,-1.279c-0.05,-1.005 1,-1.505 3.154,-1.505c2.75,0 6.883,-0.087 12.392,-0.262c5.504,-0.175 9.633,-0.267 12.391,-0.267c0.55,0 1.321,1.054 2.325,3.163l21.929,48.137c1.55,3.25 2.855,4.879 3.909,4.879c0.55,0 1.725,-1.879 3.525,-5.629c5.058,-10.521 12.541,-26.362 22.454,-47.541c0.854,-1.955 1.779,-2.925 2.783,-2.925c1.45,0 3.642,0.07 6.567,0.22c2.929,0.15 5.146,0.225 6.65,0.225c1.246,0 3.162,-0.12 5.742,-0.375c2.579,-0.245 4.495,-0.375 5.745,-0.375c1.5,0 2.255,0.605 2.255,1.8c0,5.913 -0.213,14.734 -0.638,26.471c-0.425,11.746 -0.637,20.567 -0.637,26.479c0,5.459 0.22,13.638 0.675,24.555c0.45,10.916 0.675,19.075 0.675,24.479" style="fill:#fff;fill-rule:nonzero;"/><path d="M500.423,104.069c0,-3.992 -1.212,-7.392 -3.633,-10.188c-2.529,-2.929 -5.767,-4.396 -9.713,-4.396c-3.75,0 -6.933,1.521 -9.545,4.555c-2.53,2.929 -3.792,6.295 -3.792,10.112c0,4.071 1.179,7.467 3.554,10.183c2.5,2.855 5.767,4.275 9.783,4.275c3.759,0 6.955,-1.504 9.592,-4.512c2.504,-2.883 3.754,-6.217 3.754,-10.029m15.142,0.083c0,8.304 -2.65,15.271 -7.946,20.892c-5.408,5.7 -12.254,8.546 -20.542,8.546c-8.225,0 -15.054,-2.875 -20.491,-8.63c-5.325,-5.616 -7.988,-12.558 -7.988,-20.808c0,-8.287 2.663,-15.254 7.988,-20.9c5.437,-5.779 12.266,-8.671 20.491,-8.671c8.18,0 14.996,2.892 20.459,8.671c5.354,5.704 8.029,12.663 8.029,20.9" style="fill:#28408c;fill-rule:nonzero;"/><path d="M562.783,89.087c0,0.291 -0.267,0.437 -0.796,0.437c-1.996,0 -5.029,-0.175 -9.092,-0.521c-4.062,-0.341 -7.104,-0.516 -9.125,-0.516c-2.558,0 -4.05,0.091 -4.475,0.283c-0.987,0.45 -1.479,1.725 -1.479,3.829c0,2.534 0.638,3.971 1.917,4.317c0.533,0.133 1.346,0.204 2.437,0.204c1.838,0 4.588,-0.104 8.25,-0.304c3.663,-0.2 6.409,-0.3 8.25,-0.3c0.88,0 1.321,2.346 1.321,7.033c0,4.075 -0.15,6.446 -0.441,7.113c-0.188,0.475 -0.55,0.716 -1.08,0.716c0.346,0 -0.495,-0.096 -2.516,-0.275c-2.85,-0.275 -7.163,-0.408 -12.942,-0.408c-1.867,0 -2.921,0.017 -3.158,0.05c-1.359,0.208 -2.038,0.779 -2.038,1.713c0,3.783 0.159,8.133 0.484,13.066c0.262,4.442 0.395,6.429 0.395,5.946c0,0.696 -0.841,1.096 -2.516,1.2c0.454,-0.021 -0.734,-0.033 -3.559,-0.033c-4.979,0 -8.187,-0.179 -9.625,-0.521c-0.77,-0.188 -1.158,-0.604 -1.158,-1.238c0,-2.958 0.1,-7.404 0.3,-13.329c0.2,-5.925 0.296,-10.362 0.296,-13.321c0,-3.516 -0.158,-7.937 -0.475,-13.266c-0.479,-8.229 -0.733,-12.646 -0.758,-13.259l-0.042,-0.483c-0.029,-0.667 0.371,-0.996 1.2,-0.996c1.971,0 4.942,0.042 8.929,0.117c3.979,0.079 6.967,0.125 8.967,0.125c2.129,0 5.333,-0.163 9.604,-0.483c4.275,-0.321 7.479,-0.48 9.612,-0.48c1.33,0 2.075,0.546 2.238,1.638c0,1.146 0.05,2.862 0.158,5.154c0.05,0.583 0.221,1.717 0.521,3.396c0.263,1.467 0.396,2.596 0.396,3.396" style="fill:#28408c;fill-rule:nonzero;"/><path d="M608.765,89.087c0,0.291 -0.263,0.437 -0.796,0.437c-2,0 -5.029,-0.175 -9.088,-0.521c-4.066,-0.341 -7.108,-0.516 -9.129,-0.516c-2.558,0 -4.05,0.091 -4.475,0.283c-0.987,0.45 -1.479,1.725 -1.479,3.829c0,2.534 0.637,3.971 1.917,4.317c0.533,0.133 1.345,0.204 2.441,0.204c1.834,0 4.584,-0.104 8.246,-0.304c3.663,-0.2 6.413,-0.3 8.25,-0.3c0.879,0 1.317,2.346 1.317,7.033c0,4.075 -0.146,6.446 -0.438,7.113c-0.183,0.475 -0.546,0.716 -1.079,0.716c0.346,0 -0.492,-0.096 -2.517,-0.275c-2.85,-0.275 -7.166,-0.408 -12.945,-0.408c-1.863,0 -2.913,0.017 -3.155,0.05c-1.358,0.208 -2.037,0.779 -2.037,1.713c0,3.783 0.158,8.133 0.479,13.066c0.267,4.442 0.4,6.429 0.4,5.946c0,0.696 -0.837,1.096 -2.517,1.2c0.45,-0.021 -0.733,-0.033 -3.558,-0.033c-4.979,0 -8.187,-0.179 -9.625,-0.521c-0.775,-0.188 -1.158,-0.604 -1.158,-1.238c0,-2.958 0.1,-7.404 0.3,-13.329c0.2,-5.925 0.3,-10.362 0.3,-13.321c0,-3.516 -0.163,-7.937 -0.484,-13.266c-0.475,-8.229 -0.733,-12.646 -0.758,-13.259l-0.037,-0.483c-0.03,-0.667 0.375,-0.996 1.195,-0.996c1.975,0 4.95,0.042 8.934,0.117c3.979,0.079 6.971,0.125 8.966,0.125c2.13,0 5.334,-0.163 9.605,-0.483c4.279,-0.321 7.479,-0.48 9.612,-0.48c1.325,0 2.075,0.546 2.238,1.638c0,1.146 0.05,2.862 0.158,5.154c0.054,0.583 0.225,1.717 0.517,3.396c0.27,1.467 0.4,2.596 0.4,3.396" style="fill:#28408c;fill-rule:nonzero;"/><path d="M688.928,123.081c0,0.434 -0.279,0.988 -0.837,1.679c-4.9,5.838 -11.413,8.75 -19.538,8.75c-8.308,0 -15.046,-2.837 -20.212,-8.508c-5.034,-5.483 -7.554,-12.412 -7.554,-20.771c0,-8.1 2.466,-14.975 7.395,-20.621c5.138,-5.908 11.675,-8.866 19.617,-8.866c8.625,0 15.392,2.65 20.292,7.95c0.533,0.587 0.8,1.104 0.8,1.558c0,0.508 -0.925,2.383 -2.784,5.638c-1.845,3.241 -3.008,5.066 -3.491,5.466c-0.213,0.213 -0.479,0.321 -0.8,0.321c-0.134,0 -0.796,-0.529 -1.996,-1.596c-1.438,-1.279 -2.85,-2.279 -4.233,-3c-2.109,-1.062 -4.288,-1.596 -6.55,-1.596c-3.917,0 -7.05,1.467 -9.392,4.396c-2.154,2.717 -3.238,6.071 -3.238,10.067c0,4.046 1.084,7.446 3.238,10.192c2.342,2.979 5.475,4.47 9.392,4.47c2.312,0 4.512,-0.504 6.591,-1.52c1.354,-0.667 2.742,-1.596 4.15,-2.792c1.171,-1.017 1.825,-1.521 1.959,-1.521c0.266,0 0.529,0.146 0.8,0.442c0.425,0.479 1.587,2.137 3.475,4.991c1.945,2.955 2.916,4.58 2.916,4.871" style="fill:#28408c;fill-rule:nonzero;"/><path d="M734.147,119.687c0,1.146 -0.229,3.246 -0.679,6.313c-0.479,3.329 -0.908,5.317 -1.283,5.95c-0.313,0.504 -0.75,0.762 -1.313,0.762c-0.242,0 -0.637,-0.041 -1.196,-0.12c-1.95,-0.267 -7.621,-0.396 -17.021,-0.396c-2.05,0 -5.095,-0.017 -9.15,-0.046c-4.045,-0.029 -7.079,-0.038 -9.104,-0.038c-0.879,0 -1.316,-0.383 -1.316,-1.158c0,-2.983 0.166,-7.467 0.5,-13.437c0.333,-5.984 0.5,-10.463 0.5,-13.45c0,-3.038 -0.163,-8.696 -0.484,-16.98c-0.079,-2.125 -0.225,-5.312 -0.441,-9.55l-0.038,-0.554c-0.05,-0.612 0.279,-0.921 1,-0.921c1.971,0 4.933,0.05 8.888,0.159c3.954,0.108 6.916,0.162 8.887,0.162c1.946,0 4.875,-0.054 8.788,-0.162c3.916,-0.109 6.845,-0.159 8.787,-0.159c1.383,0 2.183,0.521 2.4,1.559c0.129,0.612 0.338,2.475 0.621,5.571c0.279,3.104 0.412,4.991 0.412,5.65c0,0.562 -0.262,0.845 -0.795,0.845c-0.159,0 -0.442,-0.016 -0.838,-0.041c-7.087,-0.588 -13.45,-0.875 -19.092,-0.875c-1.412,0 -2.275,0.329 -2.6,0.991c-0.133,0.325 -0.195,1.346 -0.195,3.084c0,1.808 0.262,3.004 0.795,3.591c0.45,0.505 1.317,0.759 2.596,0.759c0.271,0 0.788,-0.017 1.554,-0.063c0.775,-0.037 1.417,-0.058 1.921,-0.058c3.354,0 6.75,-0.092 10.184,-0.275c0.295,-0.029 1.029,-0.096 2.2,-0.204c0.908,-0.104 1.625,-0.159 2.154,-0.159c0.646,0.001 0.962,0.309 0.962,0.921c0,-0.558 -0.241,1.48 -0.721,6.109c-0.212,2.137 -0.316,4.262 -0.316,6.395c0,0.534 -0.388,0.801 -1.167,0.801l-3.592,-0.405c-1.516,-0.158 -4.979,-0.233 -10.387,-0.233l-4.233,0c-1.088,0 -1.725,0.263 -1.917,0.792c-0.021,0.133 -0.033,0.962 -0.033,2.483c0,2.017 0.129,3.325 0.395,3.908c0.455,1.013 2.159,1.617 5.113,1.805l5.833,-0.001c1.409,0.001 3.504,-0.129 6.288,-0.383c2.783,-0.25 4.871,-0.383 6.254,-0.383c0.587,0 0.879,0.487 0.879,1.441" style="fill:#28408c;fill-rule:nonzero;"/><path d="M791.837,98.075c0,-6.208 -3.025,-9.304 -9.066,-9.304c-4.263,0 -6.5,0.233 -6.713,0.712c-0.183,0.346 -0.279,3.425 -0.279,9.23c0,0.829 0.029,2.045 0.1,3.658c0.067,1.608 0.096,2.829 0.096,3.654c0,0.537 2.4,0.8 7.192,0.8c5.783,0 8.67,-2.921 8.67,-8.75m15.938,-0.638c0,6.446 -1.688,11.667 -5.071,15.663c-3.621,4.229 -8.617,6.346 -14.979,6.346c-1.067,0 -2.671,-0.059 -4.817,-0.179c-2.141,-0.117 -3.745,-0.175 -4.812,-0.175c-1.146,0 -1.717,0.491 -1.717,1.475c0,1.229 0.117,3.05 0.358,5.471c0.242,2.425 0.359,4.237 0.359,5.433c0,0.617 -0.275,0.921 -0.834,0.921c-1.629,0 -4.066,-0.05 -7.312,-0.134c-3.25,-0.1 -5.688,-0.145 -7.317,-0.145c-0.771,0 -1.154,-0.384 -1.154,-1.159c0,-2.958 0.046,-7.396 0.142,-13.325c0.087,-5.925 0.133,-10.367 0.133,-13.321c0,-8.362 -0.358,-17.15 -1.075,-26.366l-0.042,-0.559c-0.054,-0.508 0.346,-0.816 1.2,-0.921c2.08,-0.266 6.659,-0.4 13.742,-0.4c4.179,0.001 8.192,0.05 12.025,0.159c6.313,0.187 11.396,2.171 15.263,5.958c3.941,3.888 5.908,8.967 5.908,15.258" style="fill:#28408c;fill-rule:nonzero;"/><path d="M844.092,95.882c0,-3.254 -1.067,-5.504 -3.196,-6.754c-1.654,-0.958 -4.234,-1.442 -7.75,-1.442c-2.534,0 -3.875,0.384 -4.038,1.159c-0.158,0.908 -0.237,3.516 -0.237,7.829c0,0.616 0.016,1.521 0.037,2.721c0.025,1.195 0.042,2.087 0.042,2.675c0,0.133 0.425,0.266 1.279,0.4c1.621,0.241 3.329,0.362 5.113,0.362c5.833,0 8.75,-2.321 8.75,-6.95m16.775,35.833c0,0.188 -0.263,0.317 -0.796,0.4c-1.013,0.159 -3.559,0.238 -7.629,0.238c-3.488,0 -5.859,-0.079 -7.113,-0.238c-0.587,-0.083 -0.917,-0.145 -0.996,-0.2c-0.162,-0.083 -0.346,-0.345 -0.562,-0.8c-0.4,-1.037 -0.984,-2.587 -1.754,-4.637c-1.042,-2.663 -2.667,-6.588 -4.88,-11.779c-0.475,-1.042 -1.583,-1.617 -3.312,-1.721c0.8,0.054 -0.579,0.079 -4.117,0.079c-0.4,0 -0.6,0.683 -0.6,2.033c0,1.817 0.167,4.521 0.5,8.113c0.334,3.596 0.505,6.3 0.505,8.112c0,0.45 -0.125,0.717 -0.363,0.8c-0.375,0.025 -0.746,0.05 -1.121,0.08c-1.571,0.108 -4.021,0.158 -7.35,0.158c-3.808,0 -6.096,-0.079 -6.871,-0.238c-0.775,-0.162 -1.158,-0.57 -1.158,-1.237c0,-2.933 0.142,-7.358 0.421,-13.267c0.279,-5.912 0.421,-10.35 0.421,-13.304c0,-11.267 -0.259,-20.054 -0.763,-26.367l-0.037,-0.558c-0.025,-0.454 0.391,-0.758 1.254,-0.917c0.866,-0.162 4.937,-0.325 12.208,-0.483c4.925,-0.104 8.854,-0.158 11.784,-0.158c6.07,0 11.024,1.375 14.858,4.116c4.346,3.092 6.512,7.546 6.512,13.38c0,3.891 -0.558,6.991 -1.675,9.312c-1.116,2.317 -3.183,4.567 -6.191,6.75c-0.613,0.425 -0.921,0.825 -0.921,1.2c0,-0.025 1.625,3.317 4.875,10.025c3.25,6.713 4.871,10.413 4.871,11.108" style="fill:#28408c;fill-rule:nonzero;"/><path d="M905.733,104.069c0,-3.992 -1.212,-7.392 -3.637,-10.188c-2.525,-2.929 -5.763,-4.396 -9.709,-4.396c-3.754,0 -6.937,1.521 -9.545,4.555c-2.534,2.929 -3.792,6.295 -3.792,10.112c0,4.071 1.183,7.467 3.55,10.183c2.504,2.855 5.767,4.275 9.787,4.275c3.759,0 6.959,-1.504 9.596,-4.512c2.496,-2.883 3.75,-6.217 3.75,-10.029m15.142,0.083c0,8.304 -2.65,15.271 -7.95,20.892c-5.408,5.7 -12.254,8.546 -20.538,8.546c-8.229,0 -15.058,-2.875 -20.491,-8.63c-5.325,-5.616 -7.992,-12.558 -7.992,-20.808c0,-8.287 2.667,-15.254 7.992,-20.9c5.433,-5.779 12.262,-8.671 20.491,-8.671c8.18,0 14.996,2.892 20.455,8.671c5.354,5.704 8.033,12.663 8.033,20.9" style="fill:#28408c;fill-rule:nonzero;"/><path d="M963.66,103.79c0,-4.5 -1.346,-8.175 -4.038,-11.025c-2.712,-2.958 -6.308,-4.438 -10.787,-4.438c-4.096,0 -6.146,0.546 -6.146,1.638c0,1.575 -0.034,3.937 -0.084,7.092c-0.05,3.158 -0.079,5.52 -0.079,7.091c0,1.542 0.029,3.871 0.079,6.971c0.05,3.108 0.084,5.438 0.084,7.008c0,1.15 2.129,1.721 6.391,1.721c4.605,0 8.23,-1.529 10.859,-4.596c2.479,-2.9 3.721,-6.72 3.721,-11.462m15.3,0c0,7.829 -2.521,14.621 -7.555,20.375c-4.445,5.137 -10.691,7.838 -18.733,8.108c-1.546,0.054 -5.787,0.079 -12.742,0.079c-1.308,0 -3.27,-0.037 -5.895,-0.12c-2.621,-0.08 -4.588,-0.117 -5.888,-0.117c-0.775,0 -1.167,-0.304 -1.167,-0.921c0,-2.933 0.121,-7.333 0.342,-13.208c0.229,-5.867 0.342,-10.271 0.342,-13.2c0,-3.063 -0.113,-7.65 -0.342,-13.763c-0.221,-6.112 -0.342,-10.683 -0.342,-13.721c0,-0.562 0.392,-0.895 1.167,-1c1.888,-0.212 4.988,-0.32 9.304,-0.32c8.204,0 13.517,0.12 15.942,0.358c6.312,0.646 11.25,2.242 14.821,4.796c3.354,2.396 6,5.754 7.946,10.066c1.866,4.08 2.8,8.271 2.8,12.588" style="fill:#28408c;fill-rule:nonzero;"/><path d="M1032.85,112.498c0,6.792 -0.812,11.425 -2.437,13.904c-2.984,4.525 -10.429,6.788 -22.329,6.788c-5.384,0 -9.521,-0.409 -12.434,-1.238c-4.629,-1.333 -7.637,-3.875 -9.025,-7.629c-0.691,-1.842 -1.037,-5.117 -1.037,-9.829c0,-1.092 0.041,-2.717 0.121,-4.871c0.079,-2.158 0.12,-3.771 0.12,-4.838c0,-3.091 -0.145,-7.72 -0.441,-13.904c-0.292,-6.179 -0.438,-10.796 -0.438,-13.862c0,-0.634 0.279,-0.954 0.838,-0.954c1.625,0 4.083,0.066 7.371,0.2c3.287,0.133 5.745,0.2 7.37,0.2c0.663,0 0.996,0.287 0.996,0.875c0,3.52 -0.112,8.783 -0.337,15.8c-0.225,7.02 -0.342,12.287 -0.342,15.8c0,4.179 0.446,7.008 1.321,8.475c1.171,1.995 3.625,2.991 7.35,2.991c5.458,0 8.187,-2.646 8.187,-7.95c0,-3.862 -0.087,-9.654 -0.275,-17.375c-0.183,-7.725 -0.283,-13.521 -0.283,-17.379c0,-0.829 0.333,-1.237 1,-1.237c1.575,0 3.942,-0.067 7.113,-0.2c3.166,-0.134 5.537,-0.2 7.112,-0.2c0.767,0 1.154,0.32 1.154,0.954c0,3.066 -0.125,7.683 -0.375,13.862c-0.254,6.184 -0.383,10.813 -0.383,13.904c0,0.855 0.012,2.138 0.042,3.855c0.025,1.716 0.041,3.004 0.041,3.858" style="fill:#28408c;fill-rule:nonzero;"/><path d="M1087.38,123.081c0,0.434 -0.279,0.988 -0.837,1.679c-4.905,5.838 -11.413,8.75 -19.538,8.75c-8.308,0 -15.05,-2.837 -20.212,-8.508c-5.03,-5.483 -7.555,-12.412 -7.555,-20.771c0,-8.1 2.467,-14.975 7.396,-20.621c5.138,-5.908 11.675,-8.866 19.613,-8.866c8.629,0 15.391,2.65 20.296,7.95c0.533,0.587 0.795,1.104 0.795,1.558c0,0.508 -0.92,2.383 -2.775,5.638c-1.85,3.241 -3.012,5.066 -3.495,5.466c-0.209,0.213 -0.48,0.321 -0.796,0.321c-0.134,0 -0.8,-0.529 -2,-1.596c-1.438,-1.279 -2.85,-2.279 -4.234,-3c-2.104,-1.062 -4.287,-1.596 -6.55,-1.596c-3.916,0 -7.05,1.467 -9.387,4.396c-2.163,2.717 -3.238,6.071 -3.238,10.067c0,4.046 1.075,7.446 3.238,10.192c2.337,2.979 5.471,4.47 9.387,4.47c2.313,0 4.513,-0.504 6.592,-1.52c1.358,-0.667 2.742,-1.596 4.154,-2.792c1.171,-1.017 1.821,-1.521 1.954,-1.521c0.267,0 0.534,0.146 0.8,0.442c0.425,0.479 1.584,2.137 3.475,4.991c1.946,2.955 2.917,4.58 2.917,4.871" style="fill:#28408c;fill-rule:nonzero;"/><path d="M1130.61,88.287c0,0.533 -0.292,0.8 -0.879,0.8c-1.013,0 -5.021,-0.2 -12.025,-0.6c-0.158,6.738 -0.238,11.438 -0.238,14.1c0,3.15 0.125,7.875 0.38,14.188c0.254,6.308 0.379,11.033 0.379,14.179c0,0.508 -0.121,0.825 -0.363,0.962c-0.075,0.05 -0.45,0.117 -1.112,0.2c-1.6,0.209 -3.942,0.317 -7.034,0.317c-3.437,0 -5.85,-0.108 -7.233,-0.317c-0.742,-0.137 -1.121,-0.546 -1.121,-1.237c0,-3.146 0.138,-7.863 0.4,-14.146c0.271,-6.288 0.404,-10.996 0.404,-14.146c0,-2.075 -0.112,-6.704 -0.32,-13.9c-5.33,0.533 -9.575,0.8 -12.75,0.8c-0.421,0 -0.634,-0.137 -0.634,-0.4c0,-0.35 0.188,-1.371 0.563,-3.079c0.421,-1.863 0.662,-2.996 0.716,-3.396c0.08,-1.25 0.167,-2.5 0.28,-3.754c0.183,-1.996 0.508,-2.992 0.958,-2.992c0.054,0 0.237,0.013 0.558,0.038c4.313,0.562 10.692,0.837 19.138,0.837c2.396,0 6.816,-0.254 13.258,-0.758c3.463,-0.267 5.208,-0.396 5.233,-0.396c0.538,0 0.842,0.029 0.921,0.096c0.084,0.067 0.138,0.329 0.159,0.783c0,0.717 -0.021,1.717 -0.075,2.992c-0.059,1.412 -0.084,2.412 -0.084,3c0,0.658 0.088,1.642 0.259,2.933c0.175,1.292 0.262,2.263 0.262,2.896" style="fill:#28408c;fill-rule:nonzero;"/><path d="M1162.13,113.739c0,5.404 -2.279,10.041 -6.829,13.9c-3.996,3.408 -8.859,5.579 -14.584,6.508c-0.212,0.029 -0.379,0.042 -0.521,0.042c-0.608,0 -1.97,-1.871 -4.07,-5.613c-2.105,-3.741 -3.159,-6.025 -3.159,-6.85c0,-0.291 0.2,-0.479 0.6,-0.562c3.859,-0.879 6.421,-1.621 7.667,-2.234c2.775,-1.383 4.154,-3.437 4.154,-6.15c0,-1.733 -0.9,-3.662 -2.712,-5.795c-3.142,-3.621 -4.846,-5.634 -5.113,-6.034c-1.837,-2.766 -2.758,-5.833 -2.758,-9.187c0,-4.875 2.246,-8.925 6.75,-12.142c3.679,-2.671 8.187,-4.4 13.542,-5.196c0.295,-0.029 0.52,-0.041 0.683,-0.041c0.396,0 0.716,0.316 0.958,0.958c0.692,1.942 2.304,5.458 4.833,10.546c0.084,0.162 0.121,0.296 0.121,0.4c0,0.454 -0.241,0.679 -0.716,0.679c-0.217,0 -0.575,-0.038 -1.08,-0.121c-0.508,-0.079 -0.891,-0.117 -1.158,-0.117c-1.917,0 -3.6,0.442 -5.037,1.317c-1.73,1.013 -2.596,2.425 -2.596,4.233c0,1.63 0.958,3.625 2.879,5.996c3.375,4.259 5.15,6.496 5.308,6.709c1.892,2.933 2.838,5.845 2.838,8.754" style="fill:#28408c;fill-rule:nonzero;"/><path d="M615.861,72.978c0,0 1.4,-6.825 8.421,-7.963c0,0 6.245,-0.196 8.229,7.271c0,0 -6.413,6.737 -16.65,0.692" style="fill:#28408c;fill-rule:nonzero;"/><path d="M617.545,128.9c0,0 5.925,2.825 12.884,0.054l-6.425,13.934l-6.459,-13.988Z" style="fill:#28408c;fill-rule:nonzero;"/><path d="M625.724,127.049c4.796,-0.467 7.417,-3.479 7.417,-3.479l0.004,-47.667c-2.542,1.783 -5.017,2.529 -7.504,2.679l0.083,48.467Z" style="fill:#28408c;fill-rule:nonzero;"/><path d="M622.697,78.507c-4.275,-0.45 -7.45,-2.242 -7.45,-2.242l0.033,47.759c2.738,1.887 5.138,2.783 7.367,3.062l0.05,-48.579Z" style="fill:#28408c;fill-rule:nonzero;"/></g></svg>