<?xml version="1.0" encoding="UTF-8" standalone="no"?><!DOCTYPE svg PUBLIC "-//W3C//DTD SVG 1.1//EN" "http://www.w3.org/Graphics/SVG/1.1/DTD/svg11.dtd"><svg width="100%" height="100%" viewBox="0 0 145 49" version="1.1" xmlns="http://www.w3.org/2000/svg" xmlns:xlink="http://www.w3.org/1999/xlink" xml:space="preserve" xmlns:serif="http://www.serif.com/" style="fill-rule:evenodd;clip-rule:evenodd;stroke-linejoin:round;stroke-miterlimit:1.41421;"><g id="Layer-1" serif:id="Layer 1"><rect x="0" y="0.061" width="144.533" height="48.189" style="fill:#fff;"/><rect x="13.049" y="3.036" width="88.118" height="42.16" style="fill:#28408c;"/><rect x="3.936" y="3.036" width="4.537" height="42.16" style="fill:#28408c;"/><path d="M43.959,34.931c0.023,0.319 -0.142,0.479 -0.498,0.479c-0.227,0 -0.876,-0.129 -1.948,-0.391c-1.074,-0.26 -1.735,-0.438 -1.984,-0.531c-2.479,0.97 -4.857,1.458 -7.134,1.458c-3.665,0 -6.672,-1.222 -9.02,-3.665c-2.326,-2.409 -3.487,-5.451 -3.487,-9.128c0,-3.76 1.127,-6.879 3.38,-9.358c2.324,-2.562 5.342,-3.843 9.055,-3.843c1.804,0 3.5,0.345 5.089,1.033c1.719,0.758 3.072,1.826 4.056,3.202c0.202,0.284 0.303,0.486 0.303,0.604c0,0.38 -0.532,1.231 -1.592,2.554c-1.062,1.323 -1.747,1.984 -2.055,1.984c-0.072,0 -0.344,-0.245 -0.819,-0.731c-0.581,-0.58 -1.173,-1.031 -1.779,-1.351c-0.9,-0.487 -1.897,-0.729 -2.989,-0.729c-1.779,0 -3.19,0.663 -4.234,1.992c-0.972,1.221 -1.458,2.746 -1.458,4.572c0,1.935 0.503,3.463 1.512,4.591c1.043,1.162 2.519,1.742 4.429,1.742c1.21,0 2.562,-0.302 4.057,-0.907c-0.036,-0.391 -0.143,-1.388 -0.321,-2.988c-0.153,-1.234 -0.231,-2.23 -0.231,-2.989c0,-0.225 0.078,-0.362 0.231,-0.409c0.06,-0.024 0.155,-0.036 0.285,-0.036c0.344,0 0.863,0.034 1.556,0.098c0.695,0.066 1.219,0.097 1.575,0.097c0.379,0 0.949,-0.026 1.708,-0.08c0.759,-0.053 1.328,-0.079 1.708,-0.079c0.296,0 0.445,0.195 0.445,0.586c0,0.569 -0.033,1.429 -0.098,2.58c-0.065,1.152 -0.097,2.011 -0.097,2.58c0,1.531 0.112,3.82 0.337,6.868l0.018,0.195Z" style="fill:#f6f8f9;fill-rule:nonzero;"/><path d="M64.668,29.967c0,0.511 -0.101,1.447 -0.303,2.812c-0.214,1.483 -0.403,2.366 -0.569,2.65c-0.142,0.226 -0.338,0.338 -0.587,0.338c-0.106,0 -0.285,-0.018 -0.534,-0.053c-0.865,-0.119 -3.392,-0.178 -7.578,-0.178c-0.914,0 -2.272,-0.006 -4.075,-0.017c-1.802,-0.013 -3.155,-0.019 -4.056,-0.019c-0.392,0 -0.588,-0.172 -0.588,-0.516c0,-1.327 0.075,-3.324 0.224,-5.986c0.147,-2.664 0.222,-4.659 0.222,-5.988c0,-1.351 -0.072,-3.871 -0.214,-7.561c-0.036,-0.949 -0.101,-2.366 -0.195,-4.251l-0.018,-0.249c-0.024,-0.273 0.124,-0.41 0.444,-0.41c0.878,0 2.197,0.024 3.958,0.071c1.762,0.047 3.081,0.073 3.959,0.073c0.866,0 2.171,-0.026 3.914,-0.073c1.744,-0.047 3.048,-0.071 3.914,-0.071c0.617,0 0.972,0.232 1.068,0.694c0.059,0.274 0.151,1.101 0.276,2.482c0.124,1.382 0.187,2.22 0.187,2.517c0,0.25 -0.119,0.375 -0.357,0.375c-0.07,0 -0.196,-0.006 -0.373,-0.019c-3.155,-0.26 -5.99,-0.391 -8.504,-0.391c-0.629,0 -1.014,0.149 -1.157,0.445c-0.059,0.142 -0.089,0.599 -0.089,1.368c0,0.808 0.118,1.343 0.356,1.602c0.202,0.226 0.588,0.338 1.156,0.338c0.12,0 0.351,-0.008 0.694,-0.025c0.344,-0.019 0.629,-0.028 0.854,-0.028c1.495,0 3.007,-0.041 4.537,-0.124c0.131,-0.011 0.456,-0.042 0.978,-0.089c0.404,-0.047 0.725,-0.072 0.961,-0.072c0.285,0 0.428,0.138 0.428,0.41c0,-0.249 -0.107,0.658 -0.321,2.722c-0.095,0.949 -0.142,1.898 -0.142,2.847c0,0.235 -0.173,0.355 -0.516,0.355l-1.601,-0.177c-0.677,-0.073 -2.218,-0.108 -4.626,-0.108l-1.886,0c-0.486,0 -0.771,0.119 -0.854,0.358c-0.012,0.058 -0.018,0.427 -0.018,1.101c0,0.902 0.059,1.484 0.178,1.745c0.202,0.45 0.961,0.716 2.277,0.8l2.598,0c0.628,0 1.563,-0.056 2.802,-0.17c1.239,-0.111 2.168,-0.169 2.784,-0.169c0.261,0 0.392,0.214 0.392,0.641" style="fill:#f6f8f9;fill-rule:nonzero;"/><path d="M93.561,34.948c0,0.369 -0.172,0.552 -0.516,0.552l-6.298,0c-0.345,0 -0.517,-0.206 -0.517,-0.621c0,-1.2 0.045,-2.996 0.135,-5.393c0.088,-2.394 0.132,-4.192 0.132,-5.391c0,-0.344 -0.053,-0.527 -0.16,-0.552c-0.13,0.072 -0.925,1.906 -2.383,5.499c-0.855,2.111 -1.709,4.217 -2.563,6.316c-0.118,0.272 -0.267,0.433 -0.445,0.48c-0.059,0.01 -0.296,0.017 -0.711,0.017c-0.617,0 -0.985,-0.117 -1.103,-0.355c-0.641,-1.304 -1.484,-3.203 -2.527,-5.695c-1.115,-2.631 -1.952,-4.536 -2.508,-5.71c-0.025,-0.058 -0.078,-0.124 -0.161,-0.195c-0.083,0.107 -0.124,0.279 -0.124,0.517c0,1.162 0.03,2.906 0.089,5.23c0.059,2.324 0.089,4.068 0.089,5.232c0,0.415 -0.166,0.621 -0.498,0.621l-5.943,0c-0.237,0 -0.383,-0.038 -0.436,-0.114c-0.053,-0.079 -0.079,-0.212 -0.079,-0.403c0,-1.291 0.062,-3.234 0.186,-5.826c0.125,-2.591 0.187,-4.532 0.187,-5.825c0,-1.377 -0.059,-3.957 -0.177,-7.741c-0.013,-0.984 -0.066,-2.449 -0.161,-4.393l-0.018,-0.303c-0.012,-0.238 0.238,-0.356 0.747,-0.356c0.652,0 1.631,-0.02 2.936,-0.062c1.304,-0.042 2.283,-0.064 2.935,-0.064c0.131,0 0.315,0.25 0.552,0.749l5.195,11.404c0.368,0.771 0.676,1.156 0.925,1.156c0.131,0 0.41,-0.446 0.836,-1.334c1.198,-2.491 2.972,-6.244 5.319,-11.262c0.202,-0.463 0.422,-0.694 0.66,-0.694c0.343,0 0.862,0.017 1.555,0.053c0.695,0.037 1.219,0.054 1.576,0.054c0.295,0 0.749,-0.029 1.36,-0.09c0.611,-0.059 1.064,-0.088 1.361,-0.088c0.355,0 0.534,0.143 0.534,0.427c0,1.401 -0.05,3.49 -0.151,6.271c-0.101,2.783 -0.152,4.872 -0.152,6.273c0,1.293 0.053,3.231 0.16,5.816c0.107,2.587 0.161,4.52 0.161,5.8" style="fill:#f6f8f9;fill-rule:nonzero;"/><text x="104.912px" y="33.247px" style="font-family:'BerlinSansFB-Reg', 'Berlin Sans FB', sans-serif;font-size:29.056px;fill:#28408c;">Fiji</text></g></svg>